# Tiled2Unity generated file. Do not modify by hand.
# Wavefront file for 'level-1_mesh_0015.obj'

# Vertices (Count = 28)
v -4480 -7328 0
v -4512 -7328 0
v -4512 -7296 0
v -4480 -7296 0
v -4512 -7360 0
v -4544 -7360 0
v -4544 -7328 0
v -4512 -7328 0
v -4928 -7392 0
v -4960 -7392 0
v -4960 -7360 0
v -4928 -7360 0
v -4960 -7424 0
v -4992 -7424 0
v -4992 -7392 0
v -4960 -7392 0
v -4992 -7456 0
v -5024 -7456 0
v -5024 -7424 0
v -4992 -7424 0
v -5024 -7488 0
v -5056 -7488 0
v -5056 -7456 0
v -5024 -7456 0
v -5056 -7520 0
v -5088 -7520 0
v -5088 -7488 0
v -5056 -7488 0

# Texture cooridinates (Count = 4)
vt 0 0
vt 1 0
vt 1 1
vt 0 1

# Normal
vn 0 0 -1

# Mesh description
g level-1_mesh_0015

# Faces
f 1/1/1 2/2/1 3/3/1 4/4/1
f 5/1/1 6/2/1 7/3/1 8/4/1
f 9/1/1 10/2/1 11/3/1 12/4/1
f 13/1/1 14/2/1 15/3/1 16/4/1
f 17/1/1 18/2/1 19/3/1 20/4/1
f 21/1/1 22/2/1 23/3/1 24/4/1
f 25/1/1 26/2/1 27/3/1 28/4/1

